<svg xmlns="http://www.w3.org/2000/svg" width="160" height="160" viewBox="0 0 108 108" role="img" aria-label="CuspiDroid app icon">
  <rect width="108" height="108" rx="24" fill="#0f766e"/>
  <path fill="#e6fffa" d="M27 42c0-8 11-14 27-14s27 6 27 14v7c0 4-2 8-6 11l-4 18c-1 5-6 8-12 8H49c-6 0-11-3-12-8l-4-18c-4-3-6-7-6-11z"/>
  <path fill="#0f766e" d="M33 42c0-5 9-9 21-9s21 4 21 9-9 9-21 9-21-4-21-9z"/>
  <path fill="#083f3b" d="M39 42c0-3 6-5 15-5s15 2 15 5-6 5-15 5-15-2-15-5z"/>
  <path fill="#bff8ee" d="M36 58c5 4 11 6 18 6s13-2 18-6l-3 16c-1 4-4 6-9 6H48c-5 0-8-2-9-6z"/>
  <path fill="#e6fffa" d="M24 82h60c4 0 7 3 7 7v1H17v-1c0-4 3-7 7-7z"/>
</svg>
